<?xml version="1.0" encoding="utf-8"?>
<!-- Generator: Adobe Illustrator 18.1.0, SVG Export Plug-In . SVG Version: 6.00 Build 0)  -->
<svg version="1.1" id="Слой_1" xmlns="http://www.w3.org/2000/svg" xmlns:xlink="http://www.w3.org/1999/xlink" x="0px" y="0px"
	 viewBox="0 0 595.28 139.082" enable-background="new 0 0 595.28 139.082" xml:space="preserve">
<path fill="#C20B19" d="M26.156,50.095c1.496,0,2.709-1.213,2.709-2.709c0-1.497-1.213-2.709-2.709-2.709
	c-5.283,0-9.581-4.298-9.581-9.581c0-1.497-1.213-2.709-2.709-2.709c-1.496,0-2.709,1.213-2.709,2.709
	c0,4.135,1.682,7.885,4.398,10.601C18.27,48.413,22.02,50.095,26.156,50.095z"/>
<circle fill="#C20B19" cx="20.934" cy="23.62" r="5.904"/>
<circle fill="#C20B19" cx="37.632" cy="40.317" r="5.904"/>
<path fill="#6AA842" d="M87.38,36.535c0,4.135,1.682,7.885,4.398,10.601c2.716,2.716,6.466,4.398,10.601,4.398
	c1.496,0,2.709-1.213,2.709-2.709c0-1.497-1.213-2.709-2.709-2.709c-5.283,0-9.581-4.298-9.581-9.581
	c0-1.497-1.213-2.709-2.709-2.709C88.593,33.826,87.38,35.039,87.38,36.535z"/>
<circle fill="#6AA842" cx="97.157" cy="25.058" r="5.904"/>
<circle fill="#6AA842" cx="113.855" cy="41.756" r="5.904"/>
<path fill="#6AA842" d="M137.471,4.104c-0.003-0.162-0.016-0.323-0.048-0.483c-0.01-0.053-0.032-0.102-0.045-0.153
	c-0.031-0.119-0.06-0.238-0.107-0.352c-0.024-0.059-0.061-0.112-0.089-0.169c-0.05-0.101-0.096-0.203-0.159-0.298
	c-0.099-0.149-0.212-0.289-0.341-0.417c-0.128-0.128-0.268-0.242-0.417-0.341c-0.095-0.063-0.198-0.109-0.298-0.159
	c-0.057-0.028-0.11-0.065-0.169-0.089c-0.114-0.047-0.234-0.076-0.352-0.107c-0.052-0.013-0.101-0.035-0.153-0.046
	c-0.159-0.031-0.321-0.045-0.483-0.048c-0.014,0-0.028-0.004-0.043-0.004l-27.915,0c-8.18,0-15.87,3.185-21.655,8.97
	c-11.294,11.294-11.898,29.285-1.826,41.304l-5.125,5.125c-1.058,1.058-1.058,2.773,0,3.831c1.058,1.058,2.773,1.058,3.831,0
	l6.951-6.951c1.058-1.058,1.058-2.773,0-3.831c-9.828-9.828-9.828-25.819,0-35.646c4.761-4.761,11.091-7.383,17.823-7.383l21.375,0
	l-9.277,9.277c-1.058,1.058-1.058,2.773,0,3.831c1.058,1.058,2.773,1.058,3.831,0l9.277-9.277v21.375
	c0,6.733-2.622,13.062-7.383,17.823c-5.519,5.519-13.134,8.142-20.893,7.196c-1.485-0.181-2.836,0.876-3.017,2.362
	c-0.181,1.485,0.877,2.836,2.361,3.017c9.424,1.148,18.674-2.038,25.379-8.744c5.784-5.784,8.97-13.474,8.97-21.654V4.147
	C137.475,4.133,137.471,4.119,137.471,4.104z"/>
<path fill="#C20B19" d="M52.282,52.278c5.784-5.784,8.97-13.475,8.97-21.654V2.708c0-1.496-1.227-2.709-2.723-2.709
	c-0.737,0-1.442,0.3-1.953,0.832c-0.165,0.172-0.331,0.344-0.501,0.514c-6.919,6.919-14.043,8.627-15.908,6.762
	c-0.806-0.806-0.936-2.52-0.354-4.701c0.217-0.813,0.043-1.681-0.47-2.348C38.829,0.391,38.037,0,37.195-0.001h-6.567
	c-8.18,0-15.87,3.186-21.654,8.97c-11.94,11.94-11.94,31.368,0,43.309C20.914,64.218,40.342,64.218,52.282,52.278z M12.805,12.8
	c4.761-4.761,11.091-7.383,17.823-7.383l3.421,0c-0.088,2.67,0.688,4.921,2.287,6.521c4.054,4.054,11.931,2.597,19.497-3.185v21.871
	c0,6.733-2.622,13.062-7.383,17.823c-9.828,9.828-25.819,9.828-35.646,0C2.977,38.619,2.977,22.628,12.805,12.8z"/>
<path fill="#68A8DE" d="M102.379,122.63c-5.283,0-9.581-4.299-9.581-9.581c0.001-1.496-1.213-2.709-2.709-2.709
	c-1.496,0-2.709,1.213-2.709,2.709c0,4.135,1.682,7.885,4.398,10.601c2.716,2.716,6.465,4.398,10.601,4.398
	c1.496,0,2.709-1.213,2.709-2.709C105.088,123.843,103.874,122.63,102.379,122.63z"/>
<circle fill="#68A8DE" cx="97.157" cy="101.573" r="5.904"/>
<circle fill="#68A8DE" cx="113.855" cy="118.271" r="5.904"/>
<path fill="#68A8DE" d="M134.663,77.849l-27.915,0c-8.18,0-15.87,3.186-21.654,8.97c-11.94,11.94-11.94,31.368,0,43.309
	c11.94,11.94,31.368,11.94,43.309,0c5.784-5.784,8.97-13.475,8.969-21.655l0-27.915c0-0.718-0.285-1.407-0.793-1.915
	C136.07,78.134,135.381,77.849,134.663,77.849z M131.953,108.473c0,6.733-2.622,13.062-7.383,17.823
	c-9.828,9.828-25.819,9.828-35.646,0c-9.828-9.828-9.828-25.819,0-35.646c4.761-4.761,11.091-7.383,17.823-7.383l25.206,0V108.473z"
	/>
<path fill="#B1B1B0" d="M26.16,122.631c-5.282-0.001-9.581-4.298-9.581-9.581c0.001-1.496-1.213-2.709-2.709-2.709
	c-1.496,0-2.709,1.213-2.709,2.709c0,4.135,1.682,7.885,4.398,10.601c2.716,2.716,6.466,4.398,10.601,4.398
	c1.496,0,2.709-1.213,2.709-2.709C28.87,123.844,27.656,122.63,26.16,122.631z"/>
<circle fill="#B1B1B0" cx="20.939" cy="101.573" r="5.904"/>
<circle fill="#B1B1B0" cx="37.636" cy="118.271" r="5.904"/>
<path fill="#B1B1B0" d="M61.152,80.558c0-1.495-1.213-2.709-2.709-2.709l-27.915,0c-1.496,0-2.709,1.213-2.709,2.709
	c0,0.748,0.303,1.425,0.793,1.915s1.168,0.794,1.915,0.793l27.915,0C59.94,83.267,61.153,82.054,61.152,80.558z"/>
<path fill="#B1B1B0" d="M34.799,90.426c0.001-1.497-1.21-2.711-2.705-2.713L9.266,87.68c-1.497-0.002-2.711,1.209-2.713,2.705
	c-0.001,0.75,0.302,1.428,0.794,1.92c0.489,0.489,1.165,0.792,1.911,0.794l22.828,0.033C33.582,93.134,34.796,91.922,34.799,90.426z
	"/>
<path fill="#B1B1B0" d="M48.68,93.155l9.76,0.014c1.496,0.002,2.711-1.209,2.713-2.705c0.002-1.497-1.209-2.711-2.705-2.713
	l-9.76-0.014c-1.496-0.002-2.711,1.209-2.713,2.705c-0.001,0.75,0.302,1.428,0.794,1.919C47.257,92.851,47.933,93.154,48.68,93.155z
	"/>
<path fill="#B1B1B0" d="M1.752,98.952c-0.502,0.502-0.793,1.199-0.797,1.916c0,0.713,0.291,1.41,0.797,1.916
	c0.502,0.502,1.199,0.793,1.912,0.793c0.716-0.004,1.417-0.291,1.919-0.793c0.502-0.502,0.789-1.203,0.793-1.919
	c0-0.713-0.291-1.41-0.793-1.912c-0.506-0.506-1.203-0.797-1.916-0.797C2.951,98.159,2.258,98.446,1.752,98.952z"/>
<path fill="#B1B1B0" d="M58.559,98.116l-20.192,0.015c-1.496,0.001-2.708,1.215-2.707,2.711c0.001,0.747,0.304,1.424,0.794,1.914
	c0.491,0.491,1.169,0.794,1.918,0.793l20.192-0.015c1.496-0.001,2.708-1.215,2.707-2.711C61.269,99.327,60.056,98.115,58.559,98.116
	z"/>
<path fill="#B1B1B0" d="M3.026,114.091c1.489-0.143,2.581-1.466,2.438-2.955l-0.059-0.612c-0.142-1.49-1.466-2.581-2.955-2.438
	c-1.489,0.143-2.581,1.466-2.438,2.955l0.059,0.612c0.062,0.652,0.351,1.227,0.78,1.656C1.403,113.862,2.188,114.172,3.026,114.091z
	"/>
<path fill="#B1B1B0" d="M58.568,108.018l-13.439-0.036c-1.496-0.004-2.712,1.206-2.716,2.702c-0.002,0.75,0.301,1.431,0.793,1.923
	c0.489,0.489,1.163,0.791,1.908,0.794l13.439,0.036c1.496,0.004,2.712-1.206,2.716-2.702
	C61.275,109.239,60.064,108.023,58.568,108.018z"/>
<path fill="#B1B1B0" d="M5.227,117.575c-0.712,0-1.413,0.287-1.916,0.789c-0.505,0.505-0.793,1.207-0.793,1.919
	c0,0.713,0.291,1.41,0.793,1.912c0.506,0.506,1.203,0.797,1.916,0.797c0.712,0,1.41-0.291,1.915-0.797
	c0.502-0.502,0.793-1.199,0.793-1.912c0-0.713-0.287-1.413-0.793-1.919C6.641,117.862,5.94,117.575,5.227,117.575z"/>
<path fill="#B1B1B0" d="M55.878,117.686c-0.709-0.004-1.406,0.287-1.912,0.793c-0.506,0.506-0.797,1.203-0.797,1.916
	c0,0.713,0.291,1.41,0.797,1.916c0.502,0.502,1.199,0.793,1.912,0.793c0.713,0,1.414-0.288,1.919-0.793
	c0.506-0.506,0.789-1.203,0.789-1.915c0-0.713-0.287-1.414-0.789-1.916C57.292,117.973,56.591,117.686,55.878,117.686z"/>
<path fill="#B1B1B0" d="M12.391,126.853c-0.712,0-1.413,0.287-1.916,0.789c-0.505,0.505-0.793,1.207-0.793,1.919
	c0,0.713,0.291,1.41,0.793,1.912c0.506,0.506,1.203,0.797,1.916,0.797c0.713,0,1.41-0.291,1.916-0.797
	c0.502-0.502,0.793-1.199,0.793-1.912c0-0.712-0.287-1.413-0.793-1.919C13.805,127.141,13.104,126.854,12.391,126.853z"/>
<path fill="#B1B1B0" d="M48.176,127.592L36.834,127.6c-1.496,0.001-2.708,1.215-2.707,2.711c0.001,0.747,0.304,1.424,0.794,1.914
	c0.49,0.49,1.169,0.794,1.917,0.794l11.341-0.008c1.496-0.001,2.708-1.215,2.707-2.711C50.885,128.802,49.672,127.59,48.176,127.592
	z"/>
<g>
	<path fill="#FFFFFF" d="M213.015,96.984h-15.443l10.696-50.437h15.444L213.015,96.984z"/>
	<path fill="#FFFFFF" d="M266.571,96.984h-14.805l-7.155-20.119c-1.133-3.187-2.267-6.374-2.904-9.704
		c-0.425,3.542-1.063,7.297-1.77,10.839l-3.967,18.984h-14.876l10.697-50.437h15.301l6.872,19.905
		c1.913,5.455,2.055,6.163,2.975,9.564c0.354-3.825,1.063-7.864,1.841-11.76l3.613-17.71h14.876L266.571,96.984z"/>
	<path fill="#FFFFFF" d="M321.969,59.228h-23.59l-1.629,7.721h20.331l-2.55,11.9H294.2l-3.825,18.135h-15.444l10.697-50.437h39.033
		L321.969,59.228z"/>
	<path fill="#FFFFFF" d="M335.006,96.984h-15.444l10.697-50.437h15.444L335.006,96.984z"/>
	<path fill="#FFFFFF" d="M388.56,96.984h-14.805L366.6,76.865c-1.133-3.187-2.267-6.374-2.904-9.704
		c-0.425,3.542-1.063,7.297-1.77,10.839l-3.967,18.984h-14.876l10.697-50.437h15.301l6.872,19.905
		c1.913,5.455,2.055,6.163,2.975,9.564c0.354-3.825,1.063-7.864,1.841-11.76l3.613-17.71h14.876L388.56,96.984z"/>
	<path fill="#FFFFFF" d="M412.365,96.984h-15.443l10.696-50.437h15.444L412.365,96.984z"/>
	<path fill="#FFFFFF" d="M467.55,59.228h-23.59l-1.629,7.721h20.331l-2.55,11.9h-20.331l-3.825,18.135h-15.443l10.696-50.437h39.033
		L467.55,59.228z"/>
	<path fill="#FFFFFF" d="M480.586,96.984h-15.444l10.697-50.437h15.444L480.586,96.984z"/>
	<path fill="#FFFFFF" d="M534.141,96.984h-14.805l-7.155-20.119c-1.133-3.187-2.267-6.374-2.904-9.704
		c-0.425,3.542-1.063,7.297-1.77,10.839l-3.967,18.984h-14.876l10.697-50.437h15.301l6.872,19.905
		c1.913,5.455,2.055,6.163,2.975,9.564c0.354-3.825,1.063-7.864,1.841-11.76l3.613-17.71h14.876L534.141,96.984z"/>
	<path fill="#FFFFFF" d="M592.586,58.802h-26.494l-1.346,6.304h24.581l-2.479,11.688h-24.583l-1.558,7.368h27.203l-2.691,12.822
		h-42.504l10.697-50.437h41.796L592.586,58.802z"/>
</g>
</svg>
