<?xml version="1.0" encoding="utf-8"?>
<!-- Generator: Adobe Illustrator 18.1.0, SVG Export Plug-In . SVG Version: 6.00 Build 0)  -->
<svg version="1.1" id="Слой_1" xmlns="http://www.w3.org/2000/svg" xmlns:xlink="http://www.w3.org/1999/xlink" x="0px" y="0px"
	 viewBox="0 0 45.35 22.68" enable-background="new 0 0 45.35 22.68" xml:space="preserve">
<path fill="#C10B19" d="M15.726,8.154c0.244,0,0.442-0.198,0.442-0.442c0-0.244-0.198-0.442-0.442-0.442
	c-0.862,0-1.563-0.701-1.563-1.563c0-0.244-0.198-0.442-0.442-0.442c-0.244,0-0.442,0.198-0.442,0.442
	c0,0.675,0.274,1.287,0.718,1.73C14.439,7.88,15.051,8.154,15.726,8.154z"/>
<circle fill="#C10B19" cx="14.874" cy="3.834" r="0.963"/>
<circle fill="#C10B19" cx="17.599" cy="6.558" r="0.963"/>
<path fill="#69A742" d="M25.717,5.941c0,0.675,0.274,1.287,0.718,1.73c0.443,0.443,1.055,0.718,1.73,0.718
	c0.244,0,0.442-0.198,0.442-0.442c0-0.244-0.198-0.442-0.442-0.442c-0.862,0-1.563-0.701-1.563-1.563
	c0-0.244-0.198-0.442-0.442-0.442C25.915,5.499,25.717,5.697,25.717,5.941z"/>
<circle fill="#69A742" cx="27.313" cy="4.068" r="0.963"/>
<circle fill="#69A742" cx="30.038" cy="6.793" r="0.963"/>
<path fill="#69A742" d="M33.892,0.649c0-0.026-0.003-0.053-0.008-0.079c-0.002-0.009-0.005-0.017-0.007-0.025
	c-0.005-0.019-0.01-0.039-0.017-0.057c-0.004-0.01-0.01-0.018-0.015-0.028c-0.008-0.016-0.016-0.033-0.026-0.049
	c-0.016-0.024-0.035-0.047-0.056-0.068c-0.021-0.021-0.044-0.039-0.068-0.056c-0.016-0.01-0.032-0.018-0.049-0.026
	c-0.009-0.005-0.018-0.011-0.028-0.015C33.6,0.24,33.58,0.235,33.561,0.23c-0.008-0.002-0.016-0.006-0.025-0.007
	c-0.026-0.005-0.052-0.007-0.079-0.008c-0.002,0-0.005-0.001-0.007-0.001l-4.555,0c-1.335,0-2.59,0.52-3.534,1.464
	c-1.843,1.843-1.942,4.779-0.298,6.74l-0.836,0.836c-0.173,0.173-0.173,0.453,0,0.625c0.173,0.173,0.453,0.173,0.625,0l1.134-1.134
	c0.173-0.173,0.173-0.453,0-0.625c-1.604-1.604-1.604-4.213,0-5.817c0.777-0.777,1.81-1.205,2.909-1.205l3.488,0l-1.514,1.514
	c-0.173,0.173-0.173,0.453,0,0.625c0.173,0.173,0.453,0.173,0.625,0l1.514-1.514v3.488c0,1.099-0.428,2.132-1.205,2.909
	c-0.901,0.901-2.143,1.329-3.409,1.174c-0.242-0.03-0.463,0.143-0.492,0.385c-0.03,0.242,0.143,0.463,0.385,0.492
	c1.538,0.187,3.047-0.333,4.142-1.427c0.944-0.944,1.464-2.199,1.464-3.534V0.656C33.892,0.654,33.892,0.651,33.892,0.649z"/>
<path fill="#C10B19" d="M19.99,8.51c0.944-0.944,1.464-2.199,1.464-3.534V0.421c0-0.244-0.2-0.442-0.444-0.442
	c-0.12,0-0.235,0.049-0.319,0.136c-0.027,0.028-0.054,0.056-0.082,0.084c-1.129,1.129-2.292,1.408-2.596,1.104
	c-0.132-0.132-0.153-0.411-0.058-0.767c0.035-0.133,0.007-0.274-0.077-0.383c-0.084-0.109-0.213-0.173-0.351-0.173h-1.072
	c-1.335,0-2.59,0.52-3.534,1.464c-1.949,1.949-1.948,5.119,0,7.067C14.871,10.459,18.041,10.459,19.99,8.51z M13.547,2.068
	c0.777-0.777,1.81-1.205,2.909-1.205l0.558,0C17,1.299,17.126,1.666,17.388,1.927c0.662,0.662,1.947,0.424,3.182-0.52v3.569
	c0,1.099-0.428,2.132-1.205,2.909c-1.604,1.604-4.213,1.604-5.817,0C11.944,6.281,11.944,3.672,13.547,2.068z"/>
<path fill="#68A7DD" d="M28.165,19.991c-0.862,0-1.563-0.702-1.564-1.564c0-0.244-0.198-0.442-0.442-0.442
	c-0.244,0-0.442,0.198-0.442,0.442c0,0.675,0.274,1.287,0.718,1.73c0.443,0.443,1.055,0.718,1.73,0.718
	c0.244,0,0.442-0.198,0.442-0.442C28.607,20.189,28.409,19.991,28.165,19.991z"/>
<circle fill="#68A7DD" cx="27.313" cy="16.555" r="0.963"/>
<circle fill="#68A7DD" cx="30.038" cy="19.28" r="0.963"/>
<path fill="#68A7DD" d="M33.433,12.683l-4.555,0c-1.335,0-2.59,0.52-3.534,1.464c-1.949,1.949-1.949,5.119,0,7.067
	s5.119,1.949,7.067,0c0.944-0.944,1.464-2.199,1.464-3.534l0-4.555c0-0.117-0.047-0.23-0.129-0.313
	C33.663,12.73,33.55,12.683,33.433,12.683z M32.991,17.681c0,1.099-0.428,2.132-1.205,2.909c-1.604,1.604-4.213,1.604-5.817,0
	c-1.604-1.604-1.604-4.213,0-5.817c0.777-0.777,1.81-1.205,2.908-1.205l4.113,0V17.681z"/>
<path fill="#B0B0AF" d="M15.727,19.991c-0.862,0-1.564-0.701-1.564-1.564c0-0.244-0.198-0.442-0.442-0.442
	c-0.244,0-0.442,0.198-0.442,0.442c0,0.675,0.274,1.287,0.718,1.73c0.443,0.443,1.055,0.718,1.73,0.718
	c0.244,0,0.442-0.198,0.442-0.442C16.169,20.189,15.971,19.991,15.727,19.991z"/>
<circle fill="#B0B0AF" cx="14.875" cy="16.555" r="0.963"/>
<circle fill="#B0B0AF" cx="17.6" cy="19.28" r="0.963"/>
<path fill="#B0B0AF" d="M21.437,13.125c0-0.244-0.198-0.442-0.442-0.442l-4.555,0c-0.244,0-0.442,0.198-0.442,0.442
	c0,0.122,0.049,0.233,0.129,0.313s0.191,0.129,0.313,0.129l4.555,0C21.239,13.567,21.437,13.369,21.437,13.125z"/>
<path fill="#B0B0AF" d="M17.137,14.736c0-0.244-0.197-0.442-0.441-0.443l-3.725-0.005c-0.244,0-0.442,0.197-0.443,0.441
	c0,0.122,0.049,0.233,0.129,0.313c0.08,0.08,0.19,0.129,0.312,0.129l3.725,0.005C16.938,15.177,17.136,14.98,17.137,14.736z"/>
<path fill="#B0B0AF" d="M19.402,15.181l1.593,0.002c0.244,0,0.442-0.197,0.443-0.441c0-0.244-0.197-0.442-0.441-0.443l-1.593-0.002
	c-0.244,0-0.442,0.197-0.443,0.441c0,0.122,0.049,0.233,0.13,0.313C19.17,15.131,19.28,15.181,19.402,15.181z"/>
<path fill="#B0B0AF" d="M11.744,16.127c-0.082,0.082-0.129,0.196-0.13,0.313c0,0.116,0.047,0.23,0.13,0.313
	c0.082,0.082,0.196,0.129,0.312,0.129c0.117-0.001,0.231-0.047,0.313-0.129c0.082-0.082,0.129-0.196,0.129-0.313
	c0-0.116-0.047-0.23-0.129-0.312c-0.083-0.083-0.196-0.13-0.313-0.13C11.939,15.998,11.826,16.044,11.744,16.127z"/>
<path fill="#B0B0AF" d="M21.014,15.991l-3.295,0.002c-0.244,0-0.442,0.198-0.442,0.442c0,0.122,0.05,0.232,0.129,0.312
	c0.08,0.08,0.191,0.13,0.313,0.129l3.295-0.002c0.244,0,0.442-0.198,0.442-0.442C21.456,16.188,21.258,15.99,21.014,15.991z"/>
<path fill="#B0B0AF" d="M11.952,18.598c0.243-0.023,0.421-0.239,0.398-0.482l-0.01-0.1c-0.023-0.243-0.239-0.421-0.482-0.398
	c-0.243,0.023-0.421,0.239-0.398,0.482l0.01,0.1c0.01,0.106,0.057,0.2,0.127,0.27C11.687,18.56,11.815,18.611,11.952,18.598z"/>
<path fill="#B0B0AF" d="M21.016,17.606l-2.193-0.006c-0.244-0.001-0.443,0.197-0.443,0.441c0,0.122,0.049,0.233,0.129,0.314
	c0.08,0.08,0.19,0.129,0.311,0.129l2.193,0.006c0.244,0.001,0.443-0.197,0.443-0.441C21.457,17.806,21.26,17.607,21.016,17.606z"/>
<path fill="#B0B0AF" d="M12.311,19.166c-0.116,0-0.231,0.047-0.313,0.129c-0.082,0.082-0.129,0.197-0.129,0.313
	c0,0.116,0.047,0.23,0.129,0.312c0.083,0.083,0.196,0.13,0.313,0.13c0.116,0,0.23-0.047,0.313-0.13
	c0.082-0.082,0.129-0.196,0.129-0.312c0-0.116-0.047-0.231-0.129-0.313C12.541,19.213,12.427,19.166,12.311,19.166z"/>
<path fill="#B0B0AF" d="M20.576,19.184c-0.116-0.001-0.229,0.047-0.312,0.129c-0.083,0.083-0.13,0.196-0.13,0.313
	c0,0.116,0.048,0.23,0.13,0.313c0.082,0.082,0.196,0.129,0.312,0.129s0.231-0.047,0.313-0.129c0.083-0.083,0.129-0.196,0.129-0.313
	c0-0.116-0.047-0.231-0.129-0.313C20.807,19.231,20.693,19.184,20.576,19.184z"/>
<path fill="#B0B0AF" d="M13.48,20.68c-0.116,0-0.231,0.047-0.313,0.129c-0.082,0.082-0.129,0.197-0.129,0.313
	c0,0.116,0.048,0.23,0.129,0.312c0.083,0.083,0.196,0.13,0.313,0.13c0.116,0,0.23-0.048,0.313-0.13
	c0.082-0.082,0.129-0.196,0.129-0.312c0-0.116-0.047-0.231-0.129-0.313C13.711,20.727,13.596,20.68,13.48,20.68z"/>
<path fill="#B0B0AF" d="M19.32,20.801l-1.851,0.001c-0.244,0-0.442,0.198-0.442,0.442c0,0.122,0.05,0.232,0.129,0.312
	c0.08,0.08,0.191,0.13,0.313,0.129l1.851-0.001c0.244,0,0.442-0.198,0.442-0.442C19.762,20.998,19.564,20.8,19.32,20.801z"/>
</svg>
