<?xml version="1.0" encoding="utf-8"?>
<!-- Generator: Adobe Illustrator 18.1.0, SVG Export Plug-In . SVG Version: 6.00 Build 0)  -->
<svg version="1.1" id="Слой_1" xmlns="http://www.w3.org/2000/svg" xmlns:xlink="http://www.w3.org/1999/xlink" x="0px" y="0px"
	 viewBox="0 0 566.93 474.608" enable-background="new 0 0 566.93 474.608" xml:space="preserve">
<path d="M566.93,94.552H0.383C0.171,94.552,0,94.38,0,94.169V0.383C0,0.171,0.171,0,0.383,0H566.93c0.211,0,0.383,0.171,0.383,0.383
	v93.786C567.313,94.38,567.141,94.552,566.93,94.552z"/>
<path d="M566.93,285.504H0.383c-0.212,0-0.383-0.171-0.383-0.383v-93.786c0-0.212,0.171-0.383,0.383-0.383H566.93
	c0.211,0,0.383,0.171,0.383,0.383v93.786C567.313,285.332,567.141,285.504,566.93,285.504z"/>
<path d="M566.93,474.608H0.383c-0.212,0-0.383-0.171-0.383-0.383v-93.786c0-0.211,0.171-0.383,0.383-0.383H566.93
	c0.212,0,0.383,0.171,0.383,0.383v93.786C567.313,474.436,567.142,474.608,566.93,474.608z"/>
</svg>
