<?xml version="1.0" encoding="utf-8"?>
<!-- Generator: Adobe Illustrator 18.1.0, SVG Export Plug-In . SVG Version: 6.00 Build 0)  -->
<svg version="1.1" id="Слой_1" xmlns="http://www.w3.org/2000/svg" xmlns:xlink="http://www.w3.org/1999/xlink" x="0px" y="0px"
	 viewBox="0 0 566.93 566.93" enable-background="new 0 0 566.93 566.93" xml:space="preserve">
<g>
	<path fill="#F1CC4B" d="M283.465,566.93c-4.686,0-9.371-1.788-12.948-5.365l-36.52-36.511l-47.939,19.226
		c-4.489,1.797-9.541,1.753-14.012-0.161c-4.471-1.905-7.994-5.517-9.801-10.024l-17.974-44.827H95.976
		c-10.114,0-18.313-8.2-18.313-18.313v-51.641l-47.492-20.299c-4.462-1.905-7.994-5.508-9.801-10.015
		c-1.806-4.516-1.753-9.55,0.161-14.021l18.984-44.407l-34.15-34.159c-7.154-7.154-7.154-18.752,0-25.896l36.52-36.511
		l-19.226-47.939c-3.765-9.38,0.796-20.048,10.176-23.813l44.827-17.983V95.976c0-10.114,8.2-18.313,18.313-18.313h51.641
		l20.308-47.492c1.905-4.471,5.517-7.994,10.024-9.801c4.489-1.806,9.541-1.753,14.012,0.161l44.407,18.984l34.15-34.15
		c6.868-6.868,19.029-6.868,25.896,0l36.52,36.52l47.939-19.226c9.434-3.756,20.057,0.805,23.813,10.185l17.974,44.818h48.296
		c10.114,0,18.313,8.2,18.313,18.313v51.65l47.492,20.299c4.462,1.905,7.994,5.508,9.801,10.024
		c1.806,4.507,1.753,9.55-0.161,14.012l-18.984,44.407l34.15,34.15c3.434,3.434,5.365,8.093,5.365,12.948s-1.932,9.514-5.365,12.948
		l-36.52,36.52l19.226,47.939c3.765,9.38-0.796,20.048-10.176,23.813l-44.827,17.983v48.287c0,10.114-8.2,18.313-18.313,18.313
		h-51.641l-20.308,47.492c-3.97,9.3-14.728,13.601-24.036,9.64l-44.407-18.975l-34.15,34.141
		C292.836,565.142,288.151,566.93,283.465,566.93z M238.397,485.244c4.766,0,9.443,1.86,12.948,5.365l32.12,32.111l29.956-29.956
		c5.294-5.303,13.27-6.823,20.147-3.89l38.961,16.65l17.857-41.769c2.879-6.742,9.505-11.115,16.838-11.115h45.417v-42.359
		c0-7.485,4.552-14.209,11.491-16.999l39.327-15.774l-16.91-42.162c-2.727-6.805-1.136-14.576,4.051-19.762l32.12-32.12
		l-29.965-29.956c-5.294-5.285-6.832-13.27-3.89-20.147l16.659-38.961l-41.769-17.848c-6.742-2.879-11.115-9.505-11.115-16.838
		v-45.426h-42.368c-7.485,0-14.209-4.552-16.999-11.5l-15.765-39.318l-42.162,16.91c-6.787,2.709-14.585,1.136-19.762-4.051
		l-32.12-32.12l-29.956,29.965c-5.294,5.303-13.279,6.823-20.147,3.89l-38.961-16.659l-17.857,41.769
		c-2.879,6.742-9.505,11.115-16.838,11.115h-45.417v42.368c0,7.485-4.552,14.209-11.491,16.999L63.471,189.43l16.91,42.162
		c2.727,6.805,1.136,14.585-4.051,19.762l-32.12,32.111l29.956,29.965c5.294,5.294,6.832,13.27,3.89,20.147l-16.65,38.961
		l41.769,17.848c6.742,2.879,11.115,9.505,11.115,16.838v45.417h42.368c7.485,0,14.209,4.552,16.999,11.5l15.774,39.327
		l42.153-16.91C233.791,485.673,236.099,485.244,238.397,485.244z"/>
</g>
<path fill="#1F1F37" d="M416.835,190.468c-4.772-4.774-11.122-7.405-17.879-7.405c-6.755,0-13.105,2.63-17.882,7.405
	l-132.56,132.564l-62.662-62.659c-4.773-4.775-11.123-7.406-17.879-7.406c-6.757,0-13.107,2.631-17.882,7.407
	c-4.776,4.775-7.407,11.126-7.407,17.88c0,6.755,2.631,13.106,7.409,17.883l80.539,80.538c4.777,4.776,11.127,7.406,17.881,7.406
	c6.754,0,13.102-2.63,17.879-7.406L416.84,226.232c4.776-4.778,7.405-11.128,7.405-17.883
	C424.244,201.595,421.613,195.244,416.835,190.468z"/>
</svg>
